# xmcd
# 
# Track frame offsets:
#     150
#     23550
#     37652
#     57040
#     72542
#     90920
#     107190
#     118990
#     135690
#     156485
#     174590
#     190297
#     212195
#     224172
#     238307
#     253002
#     268220
#     282637
#     300302
#     312895
# 
# Disc length: 4454
# 
# Revision: 1
# Processed by: cddbd v1.5.2PL0 Copyright (c) Steve Scherf et al.
# Submitted via: BonkEnc v1.0.5
# 
DISCID=34116414
DTITLE=Various Artist - Low Down Acoustic Style Vol 2
DYEAR=0
DGENRE=Blues
TTITLE0=VA - Blues Before Sunrise (Scrapper Blackwell)
TTITLE1=VA - St. Louis Blues (Lonnie Johnson)
TTITLE2=VA - Jelly Roll Baker (Lonnie Johnson)
TTITLE3=VA - Blues After Hours (Lonnie Johnson)
TTITLE4=VA - It's Tight Like That (Tampa Red)
TTITLE5=VA - Judge Boushay Blues (Furry Lewis)
TTITLE6=VA - Alberta (Snooks Eaglin)
TTITLE7=VA - Brown Skinned Woman (Snooks Eaglin)
TTITLE8=VA - Jump Little Children (Brownie McGee)
TTITLE9=VA - I'm Wit It (Lightnin' Hopkins)
TTITLE10=VA - Mojo Hand (Lightnin' Hopkins)
TTITLE11=VA - I'm a Crawling Black Snake (Lightnin' Hopkins)
TTITLE12=VA - Rollin' and Tumblin' (Big Joe Williams)
TTITLE13=VA - Pea Vin Special (Big Joe Williams)
TTITLE14=VA - Pony Blues (Big Joe Williams)
TTITLE15=VA - You Got To Move (Reverend Gary Davis)
TTITLE16=VA - Twelve Gates to the City (Reverend Gary Davis)
TTITLE17=VA - Samson and Delilah (Reverend Gary Davis)
TTITLE18=VA - Broke Down Engine Blues (Blind Willie McTell)
TTITLE19=VA - The Dyin' Crapshooter's Blues (Blind Willie McTell)
EXTD=ID3G: 0
EXTT0=
EXTT1=
EXTT2=
EXTT3=
EXTT4=
EXTT5=
EXTT6=
EXTT7=
EXTT8=
EXTT9=
EXTT10=
EXTT11=
EXTT12=
EXTT13=
EXTT14=
EXTT15=
EXTT16=
EXTT17=
EXTT18=
EXTT19=
PLAYORDER=
